<svg xmlns="http://www.w3.org/2000/svg" viewBox="0 0 84.112 84.112"><path d="M68.449 48.757H41.99l-3.873 3.873h7.409v23.581H27.479c-5.495 0-10.11-3.783-11.412-8.878-.14.003-.28.01-.421.01-1.212 0-2.423-.118-3.617-.351 1.231 7.417 7.688 13.092 15.449 13.092h40.97c8.637 0 15.664-7.026 15.664-15.663s-7.026-15.664-15.663-15.664zM64.88 76.014H51.911c-.917 0-1.66-.743-1.66-1.66 0-.917.743-1.66 1.66-1.66H64.88c.917 0 1.66.743 1.66 1.66 0 .917-.743 1.66-1.66 1.66zm6.617 0h-.644c-.917 0-1.66-.743-1.66-1.66 0-.917.743-1.66 1.66-1.66h.644c.917 0 1.66.743 1.66 1.66 0 .917-.743 1.66-1.66 1.66zM55.692 8.6c-2.947-2.948-6.881-4.571-11.076-4.571S36.488 5.652 33.54 8.6L4.57 37.57C1.623 40.517 0 44.45 0 48.645c0 4.195 1.623 8.128 4.571 11.076 3.054 3.054 7.064 4.58 11.076 4.58 4.011 0 8.023-1.527 11.076-4.58l28.97-28.97c2.948-2.948 4.571-6.881 4.571-11.076S58.64 11.547 55.692 8.6zM23.984 56.982c-4.598 4.597-12.078 4.597-16.674 0-2.216-2.216-3.437-5.177-3.437-8.337s1.221-6.121 3.437-8.337l12.761-12.761 16.674 16.674-12.761 12.761zm26.307-26.586l-9.17 9.17c-.324.324-.749.486-1.174.486-.425 0-.85-.162-1.174-.486-.648-.648-.648-1.699 0-2.347l9.171-9.17c.648-.648 1.699-.648 2.347 0 .648.648.648 1.699 0 2.347zm4.679-4.679l-.455.455c-.324.324-.749.486-1.174.486-.425 0-.849-.162-1.174-.486-.648-.648-.648-1.699 0-2.347l.455-.455c.648-.648 1.699-.648 2.347 0 .649.648.649 1.699.001 2.347z"/></svg>